<?xml version="1.0" standalone="no"?>
<!DOCTYPE svg PUBLIC "-//W3C//DTD SVG 20010904//EN"
 "http://www.w3.org/TR/2001/REC-SVG-20010904/DTD/svg10.dtd">
<svg version="1.0" xmlns="http://www.w3.org/2000/svg"
 width="300.000000pt" height="300.000000pt" viewBox="0 0 300.000000 300.000000"
 preserveAspectRatio="xMidYMid meet">
<metadata>
Created by potrace 1.11, written by Peter Selinger 2001-2013
</metadata>
<g transform="translate(0.000000,300.000000) scale(0.100000,-0.100000)"
fill="#000000" stroke="none">
<path d="M1244 2210 c-27 -3 -62 -13 -77 -23 -28 -18 -29 -20 -31 -133 -1 -57
-3 -63 -36 -90 -106 -89 -185 -210 -231 -350 -28 -90 -35 -270 -14 -364 30
-130 109 -250 195 -296 98 -52 177 -68 325 -66 l100 0 1 -153 1 -154 -31 -6
c-50 -10 -141 -38 -146 -46 -3 -3 -14 -9 -25 -13 -26 -8 -92 -72 -110 -106
-19 -37 -23 -78 -13 -123 8 -37 7 -39 -46 -88 -53 -48 -94 -117 -103 -171 l-4
-28 93 0 93 1 20 31 c11 17 29 37 41 44 18 13 22 10 49 -31 l28 -45 297 0 297
0 38 60 c21 33 39 60 41 60 23 0 76 -49 99 -92 15 -27 18 -28 99 -28 93 0 121
6 108 24 -5 6 -14 30 -21 54 -21 73 -97 172 -146 188 -35 12 -43 29 -41 89 2
42 -2 67 -17 94 -43 79 -165 137 -300 144 -37 2 -71 7 -77 13 -19 19 -35 334
-17 334 11 0 99 42 107 51 3 3 21 15 41 27 82 50 167 165 198 269 17 58 22
205 8 248 -3 11 -9 35 -12 53 -15 88 -62 192 -137 302 -58 85 -126 147 -205
186 -62 30 -153 56 -153 44 0 -9 -26 -8 -35 2 -3 3 -23 2 -45 -2 l-39 -7 3 48
c3 47 1 49 -23 50 -14 0 -42 2 -61 2 -19 1 -58 0 -86 -3z"/>
</g>
</svg>
